HIERARCHY
ROOT hip
{
  OFFSET 0.00112043 5.09927 -9.65472
  CHANNELS 6 Xposition Yposition Zposition Zrotation Xrotation Yrotation
  JOINT abdomen
  {
    OFFSET 0 -1.186 -1.5018
    CHANNELS 3 Zrotation Xrotation Yrotation
    JOINT abdomen2
    {
      OFFSET 0 9.964 0.2134
      CHANNELS 3 Zrotation Xrotation Yrotation
      JOINT chest
      {
        OFFSET 0 13.134 -3.2573
        CHANNELS 3 Zrotation Xrotation Yrotation
        JOINT neck
        {
          OFFSET 0 20.686 -1.6905
          CHANNELS 3 Zrotation Xrotation Yrotation
          JOINT head
          {
            OFFSET 0 7.238 -0.1237
            CHANNELS 3 Zrotation Xrotation Yrotation
            End Site
            {
              OFFSET 0 0 0
            }
          }
        }
        JOINT lCollar
        {
          OFFSET 1.7069 20.075 5.0056
          CHANNELS 3 Zrotation Xrotation Yrotation
          JOINT lShldr
          {
            OFFSET 13.6458 -0.047 -4.849
            CHANNELS 3 Zrotation Xrotation Yrotation
            JOINT lForeArm
            {
              OFFSET 28.3255 -0.9759 2.2888
              CHANNELS 3 Zrotation Xrotation Yrotation
              JOINT lHand
              {
                OFFSET 22.1583 -0.53 10.8316
                CHANNELS 3 Zrotation Xrotation Yrotation
                JOINT lThumb1
                {
                  OFFSET 0.786 0.112 2.5817
                  CHANNELS 3 Zrotation Xrotation Yrotation
                  JOINT lThumb2
                  {
                    OFFSET 0.3601 -0.878 4.2331
                    CHANNELS 3 Zrotation Xrotation Yrotation
                    JOINT lThumb2_End
                    {
                      OFFSET 1.8127 -1.216 2.2227
                      CHANNELS 3 Zrotation Xrotation Yrotation
                      End Site
                      {
                        OFFSET 0.0181 -0.0122 0.0222
                      }
                    }
                  }
                }
                JOINT lCarpal1
                {
                  OFFSET 0.9571 1.114 1.7695
                  CHANNELS 3 Zrotation Xrotation Yrotation
                  JOINT lIndex1
                  {
                    OFFSET 4.1246 0.487 4.1451
                    CHANNELS 3 Zrotation Xrotation Yrotation
                    JOINT lIndex2
                    {
                      OFFSET 3.4052 -1.454 2.7682
                      CHANNELS 3 Zrotation Xrotation Yrotation
                      JOINT lIndex2_End
                      {
                        OFFSET 1.4531 -1.795 1.2713
                        CHANNELS 3 Zrotation Xrotation Yrotation
                        End Site
                        {
                          OFFSET 0.0145 -0.0179 0.0127
                        }
                      }
                    }
                  }
                  JOINT lMid1
                  {
                    OFFSET 5.6954 0.21 2.1184
                    CHANNELS 3 Zrotation Xrotation Yrotation
                    JOINT lMid2
                    {
                      OFFSET 3.9766 -1.54 2.3863
                      CHANNELS 3 Zrotation Xrotation Yrotation
                      JOINT lMid2_End
                      {
                        OFFSET 1.4042 -1.926 1.125
                        CHANNELS 3 Zrotation Xrotation Yrotation
                        End Site
                        {
                          OFFSET 0.014 -0.0193 0.0113
                        }
                      }
                    }
                  }
                }
                JOINT lCarpal2
                {
                  OFFSET 2.0956 0.66 -0.3894
                  CHANNELS 3 Zrotation Xrotation Yrotation
                  JOINT lRing1
                  {
                    OFFSET 5.0395 -0.09 2.4971
                    CHANNELS 3 Zrotation Xrotation Yrotation
                    JOINT lRing2
                    {
                      OFFSET 3.7921 -1.552 1.4806
                      CHANNELS 3 Zrotation Xrotation Yrotation
                      JOINT lRing2_End
                      {
                        OFFSET 1.4655 -1.808 0.9609
                        CHANNELS 3 Zrotation Xrotation Yrotation
                        End Site
                        {
                          OFFSET 0.0147 -0.0181 0.0096
                        }
                      }
                    }
                  }
                  JOINT lPinky1
                  {
                    OFFSET 4.9141 -1.269 0.3591
                    CHANNELS 3 Zrotation Xrotation Yrotation
                    JOINT lPinky2
                    {
                      OFFSET 3.1477 -1.685 0.8462
                      CHANNELS 3 Zrotation Xrotation Yrotation
                      JOINT lPinky2_End
                      {
                        OFFSET 0.8055 -1.585 0.7955
                        CHANNELS 3 Zrotation Xrotation Yrotation
                        End Site
                        {
                          OFFSET 0.0081 -0.0158 0.008
                        }
                      }
                    }
                  }
                }
              }
            }
          }
        }
        JOINT rCollar
        {
          OFFSET -1.7069 20.075 5.0056
          CHANNELS 3 Zrotation Xrotation Yrotation
          JOINT rShldr
          {
            OFFSET -13.6458 -0.047 -4.849
            CHANNELS 3 Zrotation Xrotation Yrotation
            JOINT rForeArm
            {
              OFFSET -28.3255 -0.9759 2.2888
              CHANNELS 3 Zrotation Xrotation Yrotation
              JOINT rHand
              {
                OFFSET -22.1583 -0.53 10.8316
                CHANNELS 3 Zrotation Xrotation Yrotation
                JOINT rThumb1
                {
                  OFFSET -0.786 0.112 2.5817
                  CHANNELS 3 Zrotation Xrotation Yrotation
                  JOINT rThumb2
                  {
                    OFFSET -0.3601 -0.878 4.2331
                    CHANNELS 3 Zrotation Xrotation Yrotation
                    JOINT rThumb2_End
                    {
                      OFFSET -1.8127 -1.216 2.2227
                      CHANNELS 3 Zrotation Xrotation Yrotation
                      End Site
                      {
                        OFFSET -0.0181 -0.0122 0.0222
                      }
                    }
                  }
                }
                JOINT rCarpal1
                {
                  OFFSET -0.9571 1.114 1.7695
                  CHANNELS 3 Zrotation Xrotation Yrotation
                  JOINT rIndex1
                  {
                    OFFSET -4.1246 0.487 4.1451
                    CHANNELS 3 Zrotation Xrotation Yrotation
                    JOINT rIndex2
                    {
                      OFFSET -3.4052 -1.454 2.7682
                      CHANNELS 3 Zrotation Xrotation Yrotation
                      JOINT rIndex2_End
                      {
                        OFFSET -1.4531 -1.795 1.2713
                        CHANNELS 3 Zrotation Xrotation Yrotation
                        End Site
                        {
                          OFFSET -0.0145 -0.018 0.0127
                        }
                      }
                    }
                  }
                  JOINT rMid1
                  {
                    OFFSET -5.6954 0.21 2.1184
                    CHANNELS 3 Zrotation Xrotation Yrotation
                    JOINT rMid2
                    {
                      OFFSET -3.9766 -1.54 2.3863
                      CHANNELS 3 Zrotation Xrotation Yrotation
                      JOINT rMid2_End
                      {
                        OFFSET -1.4042 -1.926 1.125
                        CHANNELS 3 Zrotation Xrotation Yrotation
                        End Site
                        {
                          OFFSET -0.014 -0.0193 0.0113
                        }
                      }
                    }
                  }
                }
                JOINT rCarpal2
                {
                  OFFSET -2.0956 0.66 -0.3894
                  CHANNELS 3 Zrotation Xrotation Yrotation
                  JOINT rRing1
                  {
                    OFFSET -5.0395 -0.09 2.4971
                    CHANNELS 3 Zrotation Xrotation Yrotation
                    JOINT rRing2
                    {
                      OFFSET -3.7921 -1.552 1.4806
                      CHANNELS 3 Zrotation Xrotation Yrotation
                      JOINT rRing2_End
                      {
                        OFFSET -1.4655 -1.808 0.9609
                        CHANNELS 3 Zrotation Xrotation Yrotation
                        End Site
                        {
                          OFFSET -0.0147 -0.0181 0.0096
                        }
                      }
                    }
                  }
                  JOINT rPinky1
                  {
                    OFFSET -4.9141 -1.269 0.3592
                    CHANNELS 3 Zrotation Xrotation Yrotation
                    JOINT rPinky2
                    {
                      OFFSET -3.1477 -1.685 0.8462
                      CHANNELS 3 Zrotation Xrotation Yrotation
                      JOINT rPinky2_End
                      {
                        OFFSET -0.8055 -1.585 0.7955
                        CHANNELS 3 Zrotation Xrotation Yrotation
                        End Site
                        {
                          OFFSET -0.0081 -0.0158 0.008
                        }
                      }
                    }
                  }
                }
              }
            }
          }
        }
      }
    }
  }
  JOINT lThigh
  {
    OFFSET 8.367 -8.2066 0.5982
    CHANNELS 3 Zrotation Xrotation Yrotation
    JOINT lShin
    {
      OFFSET 2.1923 -43.463 -0.4932
      CHANNELS 3 Zrotation Xrotation Yrotation
      JOINT lFoot
      {
        OFFSET 0.7333 -45.8593 -2.6451
        CHANNELS 3 Zrotation Xrotation Yrotation
        End Site
        {
          OFFSET 2.6618 -4.2699 12.3931
        }
      }
    }
  }
  JOINT rThigh
  {
    OFFSET -8.367 -8.2066 0.5982
    CHANNELS 3 Zrotation Xrotation Yrotation
    JOINT rShin
    {
      OFFSET -2.1923 -43.463 -0.4931
      CHANNELS 3 Zrotation Xrotation Yrotation
      JOINT rFoot
      {
        OFFSET -0.7333 -45.8593 -2.6451
        CHANNELS 3 Zrotation Xrotation Yrotation
        End Site
        {
          OFFSET -2.6618 -4.2699 12.3931
        }
      }
    }
  }
}
MOTION
Frames:	4
Frame Time:	0.0333333
0.000175023 3.12818 -11.0152 -180 -89.9981 -180 1.46853 0.375701 0.184909 2.93594 0.75603 0.360141 2.93593 0.756018 0.36014 -0.129089 34.692 -9.57418 -2.05345e-006 5.06213 8.85299e-007 -8.37082 -0.2079 -0.00995375 -22.4939 8.63371 -38.2026 -20.7628 10.0197 -83.8459 -11.127 4.37866 0.223151 -2.94452e-006 8.21086e-007 -1.17199e-006 5.85996e-007 -4.86036e-007 -1.47226e-006 -2.35852e-006 3.3505e-007 -2.64425e-006 1.59028e-015 -3.18055e-015 6.36111e-015 -2.94452e-006 8.21086e-007 -1.17199e-006 5.85996e-007 -4.86036e-007 -1.47226e-006 -2.35852e-006 3.3505e-007 -2.64425e-006 -2.94452e-006 8.21086e-007 -1.17199e-006 5.85996e-007 -4.86036e-007 -1.47226e-006 -2.35852e-006 3.3505e-007 -2.64425e-006 1.59028e-015 -3.18055e-015 6.36111e-015 -2.94452e-006 8.21086e-007 -1.17199e-006 5.85996e-007 -4.86036e-007 -1.47226e-006 -2.35852e-006 3.3505e-007 -2.64425e-006 -2.94452e-006 8.21086e-007 -1.17199e-006 5.85996e-007 -4.86036e-007 -1.47226e-006 -2.35852e-006 3.3505e-007 -2.64425e-006 16.9158 0.0307715 8.30952 43.6504 -19.22 2.66795 19.4202 11.0248 88.1394 35.6152 31.8223 -1.32187 9.54166e-015 -3.18055e-015 -5.1684e-015 2.72278e-007 3.63974e-007 -7.15652e-007 -2.72278e-007 -3.63974e-007 7.15652e-007 7.15625e-015 -3.18055e-015 -1.98785e-015 -3.18055e-015 -3.18055e-015 -1.59028e-015 2.72278e-007 3.63974e-007 -7.15652e-007 -2.72278e-007 -3.63974e-007 7.15652e-007 -3.18055e-015 -3.18055e-015 -1.59028e-015 2.72278e-007 3.63974e-007 -7.15652e-007 -2.72278e-007 -3.63974e-007 7.15652e-007 7.15625e-015 -3.18055e-015 -1.98785e-015 -3.18055e-015 -3.18055e-015 -1.59028e-015 2.72278e-007 3.63974e-007 -7.15652e-007 -2.72278e-007 -3.63974e-007 7.15652e-007 -3.18055e-015 -3.18055e-015 -1.59028e-015 2.72278e-007 3.63974e-007 -7.15652e-007 -2.72278e-007 -3.63974e-007 7.15652e-007 6.08406 -21.9606 4.80405 -3.07978 46.1562 4.4302 6.60408 35.0489 -3.61452 -6.08843 -21.9593 -4.80844 3.07702 46.1543 -4.43266 -6.60727 35.0492 3.61193 
0.000175023 3.12818 -11.0152 -180 -89.9981 -180 1.46853 0.375701 0.184909 2.93594 0.75603 0.360141 2.93593 0.756018 0.36014 -0.263403 33.065 -9.06017 -6.56428e-007 6.38305 -1.1397e-006 -8.37082 -0.2079 -0.00995375 -22.2732 8.33855 -38.1346 -21.3007 10.1603 -83.3818 -11.5831 4.55598 0.250383 -1.16194e-006 9.63712e-007 2.94687e-006 3.64102e-006 -8.65808e-008 2.63375e-006 1.42492e-007 2.19681e-006 -2.43553e-006 4.41391e-031 -3.18055e-015 7.95139e-015 -1.16194e-006 9.63712e-007 2.94687e-006 3.64102e-006 -8.65808e-008 2.63375e-006 1.42492e-007 2.19681e-006 -2.43553e-006 -1.16194e-006 9.63712e-007 2.94687e-006 3.64102e-006 -8.65808e-008 2.63375e-006 1.42492e-007 2.19681e-006 -2.43553e-006 4.41391e-031 -3.18055e-015 7.95139e-015 -1.16194e-006 9.63712e-007 2.94687e-006 3.64102e-006 -8.65808e-008 2.63375e-006 1.42492e-007 2.19681e-006 -2.43553e-006 -1.16194e-006 9.63712e-007 2.94687e-006 3.64102e-006 -8.65808e-008 2.63375e-006 1.42492e-007 2.19681e-006 -2.43553e-006 16.9158 0.0307715 8.30952 43.3113 -19.0358 2.86425 19.9543 11.2961 87.055 35.6151 31.8223 -1.32186 -2.67296e-007 -3.59913e-007 7.19396e-007 -2.67296e-007 -3.59913e-007 7.19396e-007 -2.67296e-007 -3.59913e-007 7.19396e-007 -3.08973e-031 3.18055e-015 5.56597e-015 -2.67296e-007 -3.59913e-007 7.19396e-007 -2.67296e-007 -3.59913e-007 7.19396e-007 -2.67296e-007 -3.59913e-007 7.19396e-007 -2.67296e-007 -3.59913e-007 7.19396e-007 -2.67296e-007 -3.59913e-007 7.19396e-007 -2.67296e-007 -3.59913e-007 7.19396e-007 -3.08973e-031 3.18055e-015 5.56597e-015 -2.67296e-007 -3.59913e-007 7.19396e-007 -2.67296e-007 -3.59913e-007 7.19396e-007 -2.67296e-007 -3.59913e-007 7.19396e-007 -2.67296e-007 -3.59913e-007 7.19396e-007 -2.67296e-007 -3.59913e-007 7.19396e-007 -2.67296e-007 -3.59913e-007 7.19396e-007 6.08406 -21.9606 4.80405 -3.07978 46.1562 4.4302 6.60408 35.0489 -3.61452 -6.08843 -21.9593 -4.80844 3.07702 46.1543 -4.43266 -6.60727 35.0492 3.61193 
0.000175023 3.12818 -11.0152 -180 -89.9981 -180 1.46853 0.375701 0.184909 2.93594 0.75603 0.360141 2.93593 0.756018 0.36014 -0.36936 31.5898 -8.60512 -2.08845e-006 7.57847 2.14578e-006 -8.37082 -0.2079 -0.00995375 -22.0521 8.04342 -38.0655 -21.8411 10.2967 -82.9153 -12.0399 4.73329 0.279077 -8.52052e-007 -2.94918e-006 9.55364e-007 3.6924e-007 3.11723e-006 -5.08942e-006 -6.17455e-006 -1.72276e-006 -2.82268e-006 -1.59028e-015 0 3.18055e-015 -8.52052e-007 -2.94918e-006 9.55364e-007 3.6924e-007 3.11723e-006 -5.08942e-006 -6.17455e-006 -1.72276e-006 -2.82268e-006 -8.52052e-007 -2.94918e-006 9.55364e-007 3.6924e-007 3.11723e-006 -5.08942e-006 -6.17455e-006 -1.72276e-006 -2.82268e-006 -1.59028e-015 0 3.18055e-015 -8.52052e-007 -2.94918e-006 9.55364e-007 3.6924e-007 3.11723e-006 -5.08942e-006 -6.17455e-006 -1.72276e-006 -2.82268e-006 -8.52052e-007 -2.94918e-006 9.55364e-007 3.6924e-007 3.11723e-006 -5.08942e-006 -6.17455e-006 -1.72276e-006 -2.82268e-006 16.9158 0.0307715 8.30952 42.9716 -18.8524 3.0617 20.4975 11.5583 85.9607 35.6152 31.8223 -1.32187 -5.24476e-007 -7.11671e-007 1.44618e-006 4.13403e-007 -2.89236e-006 -1.42334e-006 3.57812e-015 0 -5.1684e-015 -3.97569e-016 -6.36111e-015 -4.77083e-015 -5.24476e-007 -7.11671e-007 1.44618e-006 4.13403e-007 -2.89236e-006 -1.42334e-006 2.38542e-015 -9.54166e-015 -7.95139e-015 -5.24476e-007 -7.11671e-007 1.44618e-006 4.13403e-007 -2.89236e-006 -1.42334e-006 2.38542e-015 -9.54166e-015 -7.95139e-015 -3.97569e-016 -6.36111e-015 -4.77083e-015 -5.24476e-007 -7.11671e-007 1.44618e-006 4.13403e-007 -2.89236e-006 -1.42334e-006 2.38542e-015 -9.54166e-015 -7.95139e-015 -5.24476e-007 -7.11671e-007 1.44618e-006 4.13403e-007 -2.89236e-006 -1.42334e-006 2.38542e-015 -9.54166e-015 -7.95139e-015 6.08406 -21.9606 4.80405 -3.07978 46.1562 4.4302 6.60408 35.0489 -3.61452 -6.08843 -21.9593 -4.80844 3.07702 46.1543 -4.43266 -6.60727 35.0492 3.61193 
0.000175023 3.12818 -11.0152 -180 -89.9981 -180 1.46853 0.375701 0.184909 2.93594 0.75603 0.360141 2.93593 0.756018 0.36014 -0.460434 30.1094 -8.15879 -4.71976e-007 8.77607 -3.11608e-008 -8.37082 -0.2079 -0.00995375 -21.8307 7.74842 -37.9953 -22.3839 10.4291 -82.4464 -12.4974 4.91053 0.309232 1.59028e-015 -3.18055e-015 6.36111e-015 -4.77083e-015 -6.36111e-015 -0 -3.18055e-015 0 -0 1.59028e-015 -3.18055e-015 6.36111e-015 -7.95139e-015 -6.36111e-015 3.18055e-015 -1.59028e-015 0 3.18055e-015 -3.18055e-015 3.18055e-015 1.59028e-015 -7.95139e-015 -6.36111e-015 3.18055e-015 -1.59028e-015 0 3.18055e-015 -3.18055e-015 3.18055e-015 1.59028e-015 1.59028e-015 -3.18055e-015 6.36111e-015 -7.95139e-015 -6.36111e-015 3.18055e-015 -1.59028e-015 0 3.18055e-015 -3.18055e-015 3.18055e-015 1.59028e-015 -7.95139e-015 -6.36111e-015 3.18055e-015 -1.59028e-015 0 3.18055e-015 -3.18055e-015 3.18055e-015 1.59028e-015 16.9158 0.0307715 8.30952 42.6313 -18.67 3.26029 21.0494 11.8117 84.8562 35.6151 31.8223 -1.32186 3.42115e-006 1.12229e-006 -4.25057e-007 4.18814e-007 -2.90694e-006 -1.40696e-006 6.32809e-006 1.54111e-006 6.03356e-007 6.95746e-015 0 2.18663e-015 3.42115e-006 1.12229e-006 -4.25057e-007 4.18814e-007 -2.90694e-006 -1.40696e-006 6.32809e-006 1.54111e-006 6.03356e-007 3.42115e-006 1.12229e-006 -4.25057e-007 4.18814e-007 -2.90694e-006 -1.40696e-006 6.32809e-006 1.54111e-006 6.03356e-007 6.95746e-015 0 2.18663e-015 3.42115e-006 1.12229e-006 -4.25057e-007 4.18814e-007 -2.90694e-006 -1.40696e-006 6.32809e-006 1.54111e-006 6.03356e-007 3.42115e-006 1.12229e-006 -4.25057e-007 4.18814e-007 -2.90694e-006 -1.40696e-006 6.32809e-006 1.54111e-006 6.03356e-007 6.08406 -21.9606 4.80405 -3.07978 46.1562 4.4302 6.60408 35.0489 -3.61452 -6.08843 -21.9593 -4.80844 3.07702 46.1543 -4.43266 -6.60727 35.0492 3.61193 
